/* XPM */
static const char *collectible1[] = {
/* columns rows colors chars-per-pixel */
"32 32 118 2 ",
"   c #AFB1BB",
".  c #B2B3BD",
"X  c #B2B4BD",
"o  c #B3B5BF",
"O  c #B1B5C0",
"+  c #B8B9C2",
"@  c #B8BAC4",
"#  c #B9BCC5",
"$  c #BBBCC5",
"%  c #B6BDCA",
"&  c #BABEC8",
"*  c #BDBFC8",
"=  c #BCC0CA",
"-  c #BDC0CA",
";  c #C2C4CB",
":  c #C2C3CC",
">  c #C2C5CE",
",  c #C3C5CE",
"<  c #C3C6CF",
"1  c #C5C6CF",
"2  c #C6C7CF",
"3  c #C0C5D1",
"4  c #C1C7D2",
"5  c #C5C8D1",
"6  c #C7C8D0",
"7  c #C6C8D1",
"8  c #C7C9D1",
"9  c #C4C8D2",
"0  c #C6C9D2",
"q  c #C7C9D2",
"w  c #C7CAD3",
"e  c #C8C9D0",
"r  c #C8CAD3",
"t  c #C8CBD3",
"y  c #C9CBD3",
"u  c #CACBD2",
"i  c #C8CBD4",
"p  c #C9CBD4",
"a  c #C9CCD4",
"s  c #C8CCD5",
"d  c #C9CCD5",
"f  c #CACCD5",
"g  c #CBCDD5",
"h  c #CCCDD5",
"j  c #CCCED6",
"k  c #CDCED6",
"l  c #CDCFD6",
"z  c #CCCED7",
"x  c #CDCED7",
"c  c #CCCFD7",
"v  c #CBCFD8",
"b  c #CED0D7",
"n  c #CDD0D8",
"m  c #CED0D8",
"M  c #CED1D8",
"N  c #CED0D9",
"B  c #CFD1D9",
"V  c #CFD2DA",
"C  c #CED2DB",
"Z  c #CFD3DC",
"A  c #D0D2D8",
"S  c #D0D2D9",
"D  c #D0D2DA",
"F  c #D0D3DB",
"G  c #D1D4DB",
"H  c #D3D4DB",
"J  c #D2D4DC",
"K  c #D3D5DC",
"L  c #D3D5DD",
"P  c #D3D6DD",
"I  c #D4D6DD",
"U  c #D5D6DD",
"Y  c #D4D7DD",
"T  c #D5D7DD",
"R  c #D6D7DD",
"E  c #D4D6DE",
"W  c #D5D6DE",
"Q  c #D5D7DE",
"!  c #D6D7DE",
"~  c #D5D8DD",
"^  c #D6D8DE",
"/  c #D6D8DF",
"(  c #D7D8DF",
")  c #D6D9DF",
"_  c #D7D9DF",
"`  c #D7DADF",
"'  c #D7D9E0",
"]  c #D8DAE0",
"[  c #D9DAE0",
"{  c #D9DBE0",
"}  c #D8DBE1",
"|  c #D9DBE1",
" . c #DADBE1",
".. c #DADCE1",
"X. c #DADCE2",
"o. c #DBDCE2",
"O. c #DADCE3",
"+. c #DBDDE3",
"@. c #DCDDE3",
"#. c #DCDEE3",
"$. c #DCDEE4",
"%. c #DDDEE4",
"&. c #DDDFE4",
"*. c #DDDFE5",
"=. c #DEDFE4",
"-. c #DEDFE5",
";. c #DEE0E5",
":. c #DFE0E5",
">. c #DEE0E6",
",. c #DFE0E6",
"<. c #DFE1E6",
"1. c #E0E1E6",
"2. c #E0E1E7",
"3. c #E0E2E7",
"4. c #E1E2E7",
"5. c #E1E2E8",
"6. c #E1E3E8",
"7. c #8C5B00",
/* pixels */
"7.7.7.7.7.7.7.7.7.7.7.7.7.7.7.7.7.7.7.7.7.7.7.7.7.7.7.7.7.7.7.7.",
"7.7.7.7.7.7.7.7.7.7.7.7.7.7.7.7.7.7.7.7.7.7.7.7.7.7.7.7.7.7.7.7.",
"7.7.7.7.7.7.7.7.7.7.7.7.7.7.7.7.7.7.7.7.7.7.7.7.7.7.7.7.7.7.7.7.",
"7.7.7.7.7.7.7.7.7.7.7.7.7.7.7.7.7.7.7.7.7.7.7.7.7.7.7.7.7.7.7.7.",
"7.7.7.7.7.7.7.7.7.7.7., ,.( j j j B ( ,.p 7.7.7.7.7.7.7.7.7.7.7.",
"7.7.7.7.7.7.7.7.7.7.7.q 3.Q q r p p Q ,.d 7.7.7.7.7.7.7.7.7.7.7.",
"7.7.7.7.7.7.7.7.7.7.7.1 3.Q q r p p ( ,.r 7.7.7.7.7.7.7.7.7.7.7.",
"7.7.7.7.7.7.7.7.7.7.7.1 ,.Q q p p d ( ,.j 7.7.7.7.7.7.7.7.7.7.7.",
"7.7.7.7.7.7.7.7.7.7.7.* @.( B B B B Q @.q 7.7.7.7.7.7.7.7.7.7.7.",
"7.7.7.7.7.7.7.7.7.7.7.# ( ( ( G B Z K { , 7.7.7.7.7.7.7.7.7.7.7.",
"7.7.7.7.7.7.7.7.7.7.7.@ K D ( q % 3 B Q # 7.7.7.7.7.7.7.7.7.7.7.",
"7.7.7.7.7.7.7.7.7.7.7.o j Q O.v 3 p p j o 7.7.7.7.7.7.7.7.7.7.7.",
"7.7.7.7.7.7.7.7.7.7.7.  q u j B j j d B o 7.7.7.7.7.7.7.7.7.7.7.",
"7.7.7.7.7.7.7.7.7.7.7.. q r j K D B K { ; 7.7.7.7.7.7.7.7.7.7.7.",
"7.7.7.7.7.7.7.7.7.7.7.+ D ( Q Q D D K ( D 7.7.7.7.7.7.7.7.7.7.7.",
"7.7.7.7.7.7.7.7.7.7.7.: { { ( Q G Q Q ( { 7.7.7.7.7.7.7.7.7.7.7.",
"7.7.7.7.7.7.7.7.7.7.7.Q @.{ ( ( ( ( ( O.O.7.7.7.7.7.7.7.7.7.7.7.",
"7.7.7.7.7.7.7.7.7.7.7.{ @.O.( ( ( ( { @.{ 7.7.7.7.7.7.7.7.7.7.7.",
"7.7.7.7.7.7.7.7.7.7.7.{ @.@.{ { { { O.@.{ 7.7.7.7.7.7.7.7.7.7.7.",
"7.7.7.7.7.7.7.7.7.7.7.{ @.-.O.O.O.O.@.-.@.7.7.7.7.7.7.7.7.7.7.7.",
"7.7.7.7.7.7.7.7.7.7.7.7.-.-.@.@.@.@.-.-.-.7.7.7.7.7.7.7.7.7.7.7.",
"7.7.7.7.7.7.7.7.7.7.7.7.-.,.-.@.@.-.-.,.-.7.7.7.7.7.7.7.7.7.7.7.",
"7.7.7.7.7.7.7.7.7.7.7.7.,.,.-.-.-.,.,.,.7.7.7.7.7.7.7.7.7.7.7.7.",
"7.7.7.7.7.7.7.7.7.7.7.7.,.3.,.,.3.3.3.,.7.7.7.7.7.7.7.7.7.7.7.7.",
"7.7.7.7.7.7.7.7.7.7.7.7.O.6.6.6.6.6.6.{ 7.7.7.7.7.7.7.7.7.7.7.7.",
"7.7.7.7.7.7.7.7.7.7.7.7.Q ( ' B B Q Q Q 7.7.7.7.7.7.7.7.7.7.7.7.",
"7.7.7.7.7.7.7.7.7.7.7.7.B D B q q B B b 7.7.7.7.7.7.7.7.7.7.7.7.",
"7.7.7.7.7.7.7.7.7.7.7.7.& = q , , , = O 7.7.7.7.7.7.7.7.7.7.7.7.",
"7.7.7.7.7.7.7.7.7.7.7.7.7.7.j d q d 7.7.7.7.7.7.7.7.7.7.7.7.7.7.",
"7.7.7.7.7.7.7.7.7.7.7.7.7.7.7.7.7.7.7.7.7.7.7.7.7.7.7.7.7.7.7.7.",
"7.7.7.7.7.7.7.7.7.7.7.7.7.7.7.7.7.7.7.7.7.7.7.7.7.7.7.7.7.7.7.7.",
"7.7.7.7.7.7.7.7.7.7.7.7.7.7.7.7.7.7.7.7.7.7.7.7.7.7.7.7.7.7.7.7."
};
