/* XPM */
static const char *exit1[] = {
/* columns rows colors chars-per-pixel */
"32 27 119 2 ",
"   c #78711F",
".  c #7B4E2E",
"X  c #7F502F",
"o  c #7E5030",
"O  c #7E6E24",
"+  c #7C7520",
"@  c #747D21",
"#  c #797D22",
"$  c #825C2E",
"%  c #835331",
"&  c #895633",
"*  c #8C5934",
"=  c #935E35",
"-  c #856F27",
";  c #82692D",
":  c #84722A",
">  c #8A7A28",
",  c #92752D",
"<  c #896730",
"1  c #976037",
"2  c #986137",
"3  c #966E36",
"4  c #9C6439",
"5  c #9D6B3A",
"6  c #8F7731",
"7  c #937334",
"8  c #9B7536",
"9  c #937C35",
"0  c #9E7C31",
"q  c #967E39",
"w  c #A0663A",
"e  c #A46A3B",
"r  c #AA6D3D",
"t  c #AE703E",
"y  c #B0713F",
"u  c #9F6840",
"i  c #A56D43",
"p  c #A86E41",
"a  c #AF7242",
"s  c #AC744B",
"d  c #B27444",
"f  c #B57847",
"g  c #B47749",
"h  c #B67A4A",
"j  c #B97C4E",
"k  c #BB7E50",
"l  c #7C8123",
"z  c #7D8923",
"x  c #8C8325",
"c  c #848F26",
"v  c #848728",
"b  c #898B29",
"n  c #928A26",
"m  c #988F2A",
"M  c #8C9327",
"N  c #8D9B27",
"B  c #8B9529",
"V  c #8F9C29",
"C  c #969126",
"Z  c #94932C",
"A  c #9F952F",
"S  c #949C2B",
"D  c #9B9B2C",
"F  c #928D32",
"G  c #9A803D",
"H  c #9D9231",
"J  c #999D30",
"K  c #A59F29",
"L  c #A18033",
"P  c #AA853D",
"I  c #A19731",
"U  c #A29832",
"Y  c #94A42A",
"T  c #98A62A",
"R  c #9EAB2B",
"E  c #97A131",
"W  c #98A332",
"Q  c #A7A12A",
"!  c #A8A22A",
"~  c #ABA82E",
"^  c #B4AD2F",
"/  c #A2B42E",
"(  c #A7BA2F",
")  c #A0A130",
"_  c #B6AF30",
"`  c #AABB32",
"'  c #B0B731",
"]  c #BFBA39",
"[  c #C1BA3A",
"{  c #C2BB3B",
"}  c #C0B939",
"|  c #ADC033",
" . c #ADC133",
".. c #AEC134",
"X. c #AEC234",
"o. c #AFC236",
"O. c #B1C537",
"+. c #B2C537",
"@. c #B1C13A",
"#. c #B2C33A",
"$. c #B2C538",
"%. c #B3C638",
"&. c #B4C53B",
"*. c #B4C53C",
"=. c #B8C73B",
"-. c #B7C93D",
";. c #B6CA3C",
":. c #B8CB3D",
">. c #B8CC3E",
",. c #B9CC3E",
"<. c #B9CD3F",
"1. c #BACD3F",
"2. c #C0C03C",
"3. c #9E8040",
"4. c #A98647",
"5. c #B78049",
"6. c #C5885C",
"7. c #8C5B00",
"8. c black",
/* pixels */
"7.7.7.7.7.7.7.7.7.<.7.7.7.7.7.7.7.7.7.7.7.7.7.7.7.7.7.7.7.7.7.7.",
"7.7.7.7.7.7.7.<.<.<.<.<.7.7.@.*.<.<.<.<.7.7.{ { { 7.7.7.7.7.7.7.",
"7.7.7.7.7.7.;.1.<.<.<.<.&.@.@.;.<.<.<.<.<.2.{ { { { 7.7.7.7.7.7.",
"7.7.7.U 7.7...O.$.$.O.O.` ` ..:.<.<.<.<.<.=.] { { { ] 7.7.7.7.7.",
"7.U U U U Q / ( ( ( ( / Y T ( | | ....| | ` ' _ ^ ^ ^ ~ W W 7.7.",
"m A A U A D Y Y Y Y Y Y N V R / / / / / / / R ! Q K K D E E E 7.",
"x n n n n n M B Z Z S Y Y J S Y Y Y Y Y Y Y S C C m C C B B M c ",
"+ + + + + + + 7.7 e 7.7.B 9 P S N V H D 7.Z L 0 , > l # @ @ @ @ ",
"7.    O - + b E F 5 5.7.@ ; a 4.l 7.y t 7.r 4 & 7.7.7.# 6 : 7.7.",
"7.7.7.7.w 7.N S B < i h G ; 2 h 3.7.j a e e * 7.7.7.7.7.g = 7.7.",
"7.7.7.7.* 8 v z z # $ e d a 4 t j 6.d 4 e e r h h h j h a = 7.7.",
"7.7.7.7.7.= 5 9 9 q 3 = r d a r d d * 2 r r e 2 = 4 r r = 7.7.7.",
"7.7.7.7.7.7.& 4 p p e w e d j d t r * e = % X 7.7.7.* & 7.7.7.7.",
"7.7.7.7.7.7.7.7.% 7.7.7.* r f g r e = e % 7.7.7.7.7.7.7.7.7.7.7.",
"7.7.7.7.7.7.7.7.7.7.7.7.7.= d j e r e 4 . 7.7.7.7.7.7.7.7.7.7.7.",
"7.7.7.7.7.7.7.7.7.7.7.7.7.7.2 h 4 r d 4 7.7.7.7.7.7.7.7.7.7.7.7.",
"7.7.7.7.7.7.7.7.7.7.7.7.7.7.% e e 1 k a 7.7.7.7.7.7.7.7.7.7.7.7.",
"7.7.7.7.7.7.7.7.7.7.7.7.7.7.7.2 r & g d 7.7.7.7.7.7.7.7.7.7.7.7.",
"7.7.7.7.7.7.7.7.7.7.7.7.7.7.7.1 t * p a r 7.7.7.7.7.7.7.7.7.7.7.",
"7.7.7.7.7.7.7.7.7.7.7.7.7.7.7.= t = e r 4 7.7.7.7.7.7.7.7.7.7.7.",
"7.7.7.7.7.7.7.7.7.7.7.7.7.7.7.= r 1 e e 2 7.7.7.7.7.7.7.7.7.7.7.",
"7.7.7.7.7.7.7.7.7.7.7.7.7.7.7.e a e e w e 2 7.7.7.7.7.7.7.7.7.7.",
"7.7.7.7.7.7.7.7.7.7.7.7.7.7.7.h d t r 2 r = 7.7.7.7.7.7.7.7.7.7.",
"7.7.7.7.7.7.7.7.7.7.7.7.7.7.7.j e r d 2 4 % 7.7.7.7.7.7.7.7.7.7.",
"7.7.7.7.7.7.7.7.7.7.7.7.7.7.d p 2 e d i = = 7.7.7.7.7.7.7.7.7.7.",
"7.7.7.7.7.7.7.7.7.7.7.7.7.7.e * 2 w u s % 4 7.7.7.7.7.7.7.7.7.7.",
"7.7.7.7.7.7.7.7.7.7.7.7.= * % . * * o % . % 2 4 7.7.7.7.7.7.7.7."
};
