/* XPM */
static const char *floor1[] = {
/* columns rows colors chars-per-pixel */
"32 32 33 1 ",
"  c #774F05",
". c #744E06",
"X c #754E06",
"o c #764F06",
"O c #774F06",
"+ c #7E5303",
"@ c #785005",
"# c #795005",
"$ c #7B5104",
"% c #7A5105",
"& c #7C5204",
"* c #7D5204",
"= c #7D5304",
"- c #7E5304",
"; c #815503",
": c #825502",
"> c #825503",
", c #825602",
"< c #835602",
"1 c #845602",
"2 c #845702",
"3 c #855702",
"4 c #865702",
"5 c #875801",
"6 c #885801",
"7 c #885901",
"8 c #895901",
"9 c #895A01",
"0 c #8A5A00",
"q c #8B5A00",
"w c #8B5B00",
"e c #8A5A01",
"r c #8C5B00",
/* pixels */
"rrrrrrrrrrrrrrrrrrrrrrrrrrrrrrrr",
"rrrrrrrrrrrrrrrrrrrrrrrrrrrrrr35",
"rrrrrrrrrrrrrrrrrrrrrrrrrrrrrr35",
"rrrrrrrrrrrrrrrrrrrrrrrrrrrrrrrr",
"rrrrrr5+,qrrrrrrrrrrrrrrrrrrrrrr",
"rrrrrq$XXqrrrrrrrrrrrrrrrrrrrrrr",
"rrrrrq&X$qrrrrrrrrrrrrrrrrrrrrrr",
"rrrrrrq,5rrrrrrrrrrrrrrrrrrrrrrr",
"rrrrrrrrrrrrrrrrrrrrrrrrrrrqqrrr",
"rrrrrrrrrrrrrrrrrrrrrrrrrq,$&qrr",
"rrrrrrrrrrrrrrrrrrrrrrrrrq$XX,rr",
"rrrrrrrrrrrrrrrrrrrrrrrrrq$XX3rr",
"rrrrrrrrrrrrrrrrrrrrrrrrrrq,3rrr",
"rrrrrrrrrqqrrrrrrrrrrrrrrrrrrrrr",
"rrrrrrrrq+&qrrrrrrrrrrrrrrrrrrrr",
"rrrrrrrrqXX3rrrrrrrrrrrrrrrrrrrr",
"rrrrrrrrq3,qrrrrrrrrrrrrrrrrrrrr",
"rrrrrrrrrrrrrrrrrrrrrrrrrrrrrrrr",
"rrrrrrrrrrrrrrrrrrrrrrrrrrrrrrrr",
"rrrrrrrrrrrrrrrrrrrrrrrrrrrrrrrr",
"rrrrrrrrrrrrrrrrrrrrrrrrrrrrrrrr",
"rrrrrrrrrrrrrrrrrrrrrr5&&3rrrrrr",
"rrrrrrrrrrrrrrrrrrrrrq$XXX5rrrrr",
"rrrrrrrrrrrrrrrrrrrrr5XXXX,rrrrr",
"rrrrrrrrrrrrrrrrrrrrrq$XXX5rrrrr",
"rrqqrrrrrrrrrrrrrrrrrr5&&3rrrrrr",
"rq$$qrrrrrrrrrrrrrrrrrrrrrrrrrrr",
"rq&&qrrrrrrrrrrrrrrrrrrrrrrrrrrr",
"rrqqrrrrrrrrrrrrrrrrrrrrrrrrrrrr",
"rrrrrrrrrrrrrrrrrrrrrrrrrrrrrrrr",
"rrrrrrrrrrrrrrrrrrrrrrrrrrrrrrrr",
"rrrrrrrrrrrrrrrrrrrrrrrrrrrrrrrr"
};
