/* XPM */
static const char *player1[] = {
/* columns rows colors chars-per-pixel */
"21 32 252 2 ",
"   c #8C5B00",
".  c #191818",
"X  c #1C1C1C",
"o  c #1E1D1D",
"O  c #320606",
"+  c #201010",
"@  c #241212",
"#  c #2C1616",
"$  c #2D1717",
"%  c #231E1D",
"&  c #2A1919",
"*  c #281F1F",
"=  c #2E1E1E",
"-  c #301010",
";  c #371414",
":  c #361515",
">  c #3A1111",
",  c #3A1717",
"<  c #3C1414",
"1  c #3F1515",
"2  c #3C1516",
"3  c #321919",
"4  c #321A1A",
"5  c #331A1A",
"6  c #341818",
"7  c #341A1A",
"8  c #351A1A",
"9  c #361B1B",
"0  c #371D1D",
"q  c #3E1919",
"w  c #381C1C",
"e  c #391C1C",
"r  c #381D1D",
"t  c #3A1D1D",
"y  c #3B1D1D",
"u  c #3B1E1E",
"i  c #3C1E1E",
"p  c #3D1E1E",
"a  c #3E1F1F",
"s  c #3F1F1F",
"d  c #25231F",
"f  c #201F20",
"g  c #242424",
"h  c #252424",
"j  c #242525",
"k  c #252525",
"l  c #292322",
"z  c #2B2222",
"x  c #2F2323",
"c  c #2D2A24",
"v  c #282828",
"b  c #282929",
"n  c #2B2A2A",
"m  c #2D2A2A",
"M  c #2D2D2D",
"N  c #2C2D2E",
"B  c #2D2E2E",
"V  c #2E2E2E",
"C  c #322222",
"Z  c #3E2020",
"A  c #3E2121",
"S  c #302822",
"D  c #302B2B",
"F  c #302C2C",
"G  c #352C2C",
"H  c #363228",
"J  c #313131",
"K  c #323231",
"L  c #313232",
"P  c #323232",
"I  c #363030",
"U  c #373737",
"Y  c #393535",
"T  c #3B3636",
"R  c #3C3535",
"E  c #3F3434",
"W  c #383838",
"Q  c #3C3D3C",
"!  c #4E0D0D",
"~  c #510101",
"^  c #550000",
"/  c #570000",
"(  c #540404",
")  c #580707",
"_  c #530909",
"`  c #550E0E",
"'  c #590909",
"]  c #5A0808",
"[  c #5A0909",
"{  c #590A0A",
"}  c #491717",
"|  c #401A1A",
" . c #4A1E1E",
".. c #610000",
"X. c #620000",
"o. c #670000",
"O. c #680000",
"+. c #412020",
"@. c #412121",
"#. c #422121",
"$. c #442222",
"%. c #442223",
"&. c #472222",
"*. c #462322",
"=. c #462323",
"-. c #472323",
";. c #4C2121",
":. c #492325",
">. c #482424",
",. c #482525",
"<. c #492525",
"1. c #492626",
"2. c #4C2525",
"3. c #4C2727",
"4. c #4E2727",
"5. c #4A2827",
"6. c #472928",
"7. c #472D2D",
"8. c #4B2A28",
"9. c #482B2B",
"0. c #4C2B29",
"q. c #4D2E2B",
"w. c #542525",
"e. c #592121",
"r. c #502827",
"t. c #502828",
"y. c #512828",
"u. c #502929",
"i. c #512929",
"p. c #532929",
"a. c #502B2B",
"s. c #532A2A",
"d. c #562929",
"f. c #542A2A",
"g. c #542B2B",
"h. c #552B2B",
"j. c #562A2A",
"k. c #502A2C",
"l. c #572B2C",
"z. c #562C2C",
"x. c #5A2B2B",
"c. c #592B2C",
"v. c #582C2C",
"b. c #592D2D",
"n. c #5A2D2D",
"m. c #5B2E2E",
"M. c #5D2D2D",
"N. c #5F2C2C",
"B. c #5D2E2E",
"V. c #5D2F2F",
"C. c #5E2F2F",
"Z. c #5F2F2F",
"A. c #513A23",
"S. c #493434",
"D. c #4F3535",
"F. c #423D30",
"G. c #403939",
"H. c #4A3939",
"J. c #5F3030",
"K. c #603030",
"L. c #613131",
"P. c #623131",
"I. c #633131",
"U. c #633232",
"Y. c #643232",
"T. c #653232",
"R. c #653233",
"E. c #663333",
"W. c #673333",
"Q. c #673434",
"!. c #683434",
"~. c #6B3636",
"^. c #633738",
"/. c #633C3C",
"(. c #6E3939",
"). c #703939",
"_. c #723A3A",
"`. c #723B3B",
"'. c #703E3E",
"]. c #763C3C",
"[. c #783D3D",
"{. c #7C3F3F",
"}. c #564A39",
"|. c #5D4E39",
" X c #73563F",
".X c #3F4040",
"XX c #5F5240",
"oX c #715B43",
"OX c #665350",
"+X c #6A5252",
"@X c #6D5455",
"#X c #676767",
"$X c #776060",
"%X c #7C7C65",
"&X c #94763F",
"*X c #987C3F",
"=X c #844444",
"-X c #894646",
";X c #8A4747",
":X c #86744D",
">X c #826C6C",
",X c #857373",
"<X c #7D8364",
"1X c #719E72",
"2X c #B39551",
"3X c #BF9E52",
"4X c #91886F",
"5X c #B29860",
"6X c #BCA375",
"7X c #B2A07A",
"8X c #B7A279",
"9X c #BAA57C",
"0X c #BAA77E",
"qX c #D1B372",
"wX c #D7B078",
"eX c #E7BF63",
"rX c #ECA47F",
"tX c #E3BC75",
"yX c #EDB878",
"uX c #DFC17A",
"iX c #FFD56D",
"pX c #F4CF78",
"aX c #F9D073",
"sX c #F6D27E",
"dX c #FCD67B",
"fX c #868686",
"gX c #939393",
"hX c #9AB399",
"jX c #BFAA81",
"kX c #D7BE83",
"lX c #ABC595",
"zX c #8ECFA9",
"xX c #B0CFA8",
"cX c #A3D1BB",
"vX c #DAC38D",
"bX c #D8C492",
"nX c #F5D384",
"mX c #F7DB90",
"MX c #F8D992",
"NX c #FFE39B",
"BX c #DACDA7",
"VX c #DAC5A9",
"CX c #FDDDA3",
"ZX c #FCE5A4",
"AX c #F6E1AA",
"SX c #FAE2A8",
"DX c #FCE6AF",
"FX c #FFEEB7",
"GX c #FFEBB9",
"HX c #CAC7C7",
"JX c #CECACA",
"KX c #8C5B00",
/* pixels */
"KXKXKXKXKXKXKXKXKXKXKX<.i.KXKXKXKXKXKXKXKX",
"KXKXKXKXKXKXKX3.V.V.V.Y.).).KXKXKXKXKXKXKX",
"KXKXKXKXKXKXi.Q.!.Q.Q.Y.).;X[.KXKXKXKXKXKX",
"KXKXKXKXKXKXP.Y.Y.Y.Y.Y.!.=X;X(.KXKXKXKXKX",
"KXKXKXKXKXi.Y.Y.Y.Y.Y.Y.Y.).{.].<.KXKXKXKX",
"KXKXKXKXKXn.Q.Y.Y.Y.Y.Y.Y.Y.Y.Q.f.KXKXKXKX",
"KXKXKXKXKXf.n.n.n.P.Q.Y.Q.Y.Y.Q.V.KXKXKXKX",
"KXKXKX<.i.V.P.Y.V.i.V.V.V.V.V.P.n.KXKXKXKX",
"KX3.P.Q.!.Q.Y.Y.P.} ) ] ] ] ] ] _ - 0 5 + ",
"a Y.Q.Y.Y.Y.Y.Y.Q.N.` ..o.O.O.O...2 Z 9 KX",
"5 n.P.Y.Y.Y.Y.Y.Y.Q.Y.e.` ( ^ ^ ~ : Z KXKX",
"KX$ u u 6.q.0.8.5.%.%.<.<.%.| 2 , u KXKXKX",
"KXKXKXKX9XqX6XjX8X|.Y % }.9XXXl S KXKXKXKX",
"KXKXKX4XmXiXMXDXZXBXcX1XvXFXbXhX<XKXKXKXKX",
"KXKXKXKXkXaXdXNXCXVXzXlXSXGXAXxX%XKXKXKXKX",
"KXKXKXKXKX:X3XeXyXrXtXpXsXuXnXwXKXKXKXKXKX",
"KXKXKXKXKXKXKXKXA. X7X2X5X&X*XKXKXKXKXKXKX",
"KXKXKXKXKXKXKXl.c.^.,XoXOXk.:.KXKXKXKXKXKX",
"KXKXKXKXKXKXf.Y.n.V.;.@X+XV.n.KXKXKXKXKXKX",
"KXKXKXKXKXKXP.i.<. .%.JX>Xx.n.V.KXKXKXKXKX",
"KXKXKXKXKXKXJ.a : 2 /.HX$Xf.f.P.KXKXKXKXKX",
"KXKXKXKXKXD.'.w.O 9 S.gXH.9 f.z.KXKXKXKXKX",
"KXKXKXKXKXKX7.C @ l Y #XE x i.#.KXKXKXKXKX",
"KXKXKXKXKXKXb b H F.V V K F & * KXKXKXKXKX",
"KXKXKXKXKXKXb k d c X X = ! > k KXKXKXKXKX",
"KXKXKXKXKXKX  . k f KXKX8.q D X KXKXKXKXKX",
"KXKXKXKXKXKXKXb K k KXKXfXV K KXKXKXKXKXKX",
"KXKXKXKXKXKXKXW Q V KXKXKXU .XK KXKXKXKXKX",
"KXKXKXKXKXKXKXI G.m KXKXKXG E KXKXKXKXKXKX",
"KXKXKXKXKXKX3.%.<.9 KXKXKX#.3.%.i.KXKXKXKX",
"KXKXKXKXu V.V.i.i.%.KXKX5 3.i.f.P.i.KXKXKX",
"KXKXKXKX9 %.a u u u KXKX$ a u a #.#.KXKXKX"
};
