/* XPM */
static const char *wall1[] = {
/* columns rows colors chars-per-pixel */
"32 32 45 1 ",
"  c #462D19",
". c #4C2F19",
"X c #4E311B",
"o c #52341C",
"O c #5C3A21",
"+ c #633E24",
"@ c #674125",
"# c #6B4427",
"$ c #6E4528",
"% c #704627",
"& c #704629",
"* c #74492A",
"= c #7A4D2E",
"- c #7E502F",
"; c #81522F",
": c #845430",
"> c #885731",
", c #8B5932",
"< c #905D33",
"1 c #915D34",
"2 c #955F36",
"3 c #966136",
"4 c #986137",
"5 c #976138",
"6 c #9B6338",
"7 c #9B6438",
"8 c #9C6439",
"9 c #A06739",
"0 c #A2683A",
"q c #A56A3B",
"w c #A56A3C",
"e c #A76B3C",
"r c #A66C3F",
"t c #A96D3D",
"y c #AC6F3E",
"u c #AF713F",
"i c #B0713F",
"p c #A96D40",
"a c #AD7141",
"s c #B17240",
"d c #B37441",
"f c #B47543",
"g c #B67744",
"h c #B97846",
"j c #BC7A47",
/* pixels */
";whhjhhhhhhhhhhhhhhhhhhhhhhhhh0-",
"8,tu:7ssssssssssssssssssss3:st,1",
"g8,9 =iuuuuuuuuuuuuuuuuuui&X0,88",
"gw1,389899099999090099998843,1q8",
"g+o2-,,,=@@@@@@@@@@@@@@=,,,;8X@9",
"g314,3*yr&@@+&#@@@+*@@&ru=,1a<38",
"gsu31; qdp-=&:====*:=-psto*2aiy8",
"giu3,ttuudt=#:====&;-psuutt1auy8",
"giu4;8yuuust=:====#;psuuuy6;aiy8",
"giu4+&8yuuust:=====tsuuut8$@auy8",
"giu4#X&8yuuusr===-tsuuut8&o&siy8",
"giu4=#.&8yuuust==tsuuut8&o&=siy8",
"giu4==+X*8yuuuswtsuuuy8%o===aiy8",
"giu4==&*o&8yuuufsuuuy8&X@:==auy8",
"giu4==&:&X&8tufsuuut8&X#&:==auy8",
"giu4==&:=#X*qgsuuut8&o&=&:==auy8",
"giu4==&:==@#asuuut99$#==&:==auy8",
"giu4==&:==-psuuut9qst===&:==suy8",
"giu4==&:=-psuuuy0wuust==&:==siy8",
"giu4==&-;tsuuuy89tuuust=&:==aiy8",
"giu4==#-psuuuy8&*8tuuusr=:==auy8",
"giu6===psuuuy8&..&8tuuust;==auy8",
"guy6=-psuuuy8&X##X&8tuuusr==aiy8",
"guy4-psuuuy8&o#==#.*8tuuusr;aiy8",
"guu31syuuy8&.=====@o*8tuuyu1auy8",
"giu31>owy8&X+:====*=o*8ytO=1aiy8",
"g98311@t8$X#&:====&:&o&8t$>2a888",
"gOo3;221=O$=&-====*;=#O-122:wX@9",
"g81,5wwwrtptttppttppppprwww5,<88",
"ft,4o;siiiiiiiiiiiiiiiiiis=O4,q9",
"q,8t$,uyyyyyyyyyyyyyyyyyyu,&t8,9",
":409009999999999999999999900904;"
};
